<svg xmlns="http://www.w3.org/2000/svg" xmlns:xlink="http://www.w3.org/1999/xlink" xmlns:lucid="lucid" width="1817.08" height="1142.13"><g transform="translate(-40 -120)" lucid:page-tab-id="0_0"><path d="M0 0h3456v1360H0z" fill="#fff"/><path d="M300 268c0-4.42 3.58-8 8-8h144c4.42 0 8 3.58 8 8v104c0 4.42-3.58 8-8 8H308c-4.42 0-8-3.58-8-8z" stroke="#000" stroke-opacity="0" stroke-width="10" fill="#19967d"/><use xlink:href="#a" transform="matrix(1,0,0,1,305,265) translate(37.729012345679024 59.323611111111106)"/><path d="M217.08 180c0 22.1-35.16 40-78.54 40C95.16 220 60 202.1 60 180s35.16-40 78.54-40c43.38 0 78.54 17.9 78.54 40z" stroke="#fff" fill="#ffbbb1"/><use xlink:href="#b" transform="matrix(1,0,0,1,65,145) translate(51.525 38.4625)"/><path d="M217.08 280c0 22.1-35.16 40-78.54 40C95.16 320 60 302.1 60 280s35.16-40 78.54-40c43.38 0 78.54 17.9 78.54 40z" stroke="#fff" fill="#ffbbb1"/><use xlink:href="#c" transform="matrix(1,0,0,1,65,245) translate(35.075 38.4625)"/><path d="M217.08 380c0 22.1-35.16 40-78.54 40C95.16 420 60 402.1 60 380s35.16-40 78.54-40c43.38 0 78.54 17.9 78.54 40z" stroke="#fff" fill="#ffbbb1"/><use xlink:href="#d" transform="matrix(1,0,0,1,65,345) translate(59 38.4625)"/><path d="M217.08 480c0 22.1-35.16 40-78.54 40C95.16 520 60 502.1 60 480s35.16-40 78.54-40c43.38 0 78.54 17.9 78.54 40z" stroke="#fff" fill="#ffbbb1"/><use xlink:href="#e" transform="matrix(1,0,0,1,65,445) translate(40.05 38.4625)"/><path d="M299 320h-34.2c-3.32 0-6-2.7-6-6V186c0-3.3-2.7-6-6-6h-34.22" stroke="#5e5e5e" stroke-width="2" fill="none"/><path d="M300 321h-1.03v-2H300M218.6 181h-1.05l.03-1-.02-.92V179h1.05" fill="#5e5e5e"/><path d="M299 320h-34.2c-3.32 0-6-2.7-6-6v-28c0-3.3-2.7-6-6-6h-34.22" stroke="#5e5e5e" stroke-width="2" fill="none"/><path d="M300 321h-1.03v-2H300M218.6 281h-1.05l.03-1-.02-.92V279h1.05" fill="#5e5e5e"/><path d="M218.58 380h34.2c3.33 0 6-2.7 6-6v-48c0-3.3 2.7-6 6-6H299" stroke="#5e5e5e" stroke-width="2" fill="none"/><path d="M218.6 381h-1.05l.03-1-.02-.92V379h1.05M300 321h-1.03v-2H300" fill="#5e5e5e"/><path d="M299 320h-34.2c-3.32 0-6 2.7-6 6v148c0 3.3-2.7 6-6 6h-34.22" stroke="#5e5e5e" stroke-width="2" fill="none"/><path d="M300 321h-1.03v-2H300M218.6 481h-1.05l.03-1-.02-.92V479h1.05" fill="#5e5e5e"/><path d="M1423.47 268c0-4.42 3.58-8 8-8h144c4.42 0 8 3.58 8 8v104c0 4.42-3.58 8-8 8h-144c-4.42 0-8-3.58-8-8z" stroke="#000" stroke-opacity="0" stroke-width="10" fill="#19967d"/><use xlink:href="#f" transform="matrix(1,0,0,1,1428.4707025904033,265) translate(22.8280864197531 59.323611111111106)"/><path d="M642.74 263.35c4-1.85 10.5-1.85 14.52 0l115.48 53.3c4 1.85 4 4.85 0 6.7l-115.48 53.3c-4 1.85-10.5 1.85-14.52 0l-115.48-53.3c-4-1.85-4-4.85 0-6.7z" stroke="#000" stroke-opacity="0" fill="#ffdba9"/><use xlink:href="#g" transform="matrix(1,0,0,1,525,265) translate(80.17845679012348 59.20555555555555)"/><path d="M461 320h62.5" stroke="#5e5e5e" stroke-width="2" fill="none"/><path d="M461.03 321H460v-2h1.03M524.37 319.3l.3 1.7h-1.2v-2h1.16" fill="#5e5e5e"/><path d="M1422.47 322H794M1422.47 318H794" stroke="#5e5e5e" stroke-width="2" fill="none"/><path d="M1423.47 323h-1.02v-2h1.02M1423.47 319h-1.02v-2h1.02" fill="#5e5e5e"/><path d="M778.75 320l14.26-4.64v9.28z" stroke="#5e5e5e" stroke-width="2" fill="#5e5e5e"/><path d="M1837.08 180c0 22.1-35.16 40-78.54 40-43.38 0-78.54-17.9-78.54-40s35.16-40 78.54-40c43.38 0 78.54 17.9 78.54 40z" stroke="#fff" fill="#ffbbb1"/><use xlink:href="#h" transform="matrix(1,0,0,1,1685,145) translate(56.525 38.4625)"/><path d="M1837.08 280c0 22.1-35.16 40-78.54 40-43.38 0-78.54-17.9-78.54-40s35.16-40 78.54-40c43.38 0 78.54 17.9 78.54 40z" stroke="#fff" fill="#ffbbb1"/><use xlink:href="#i" transform="matrix(1,0,0,1,1685,245) translate(60.05 38.4625)"/><path d="M1837.08 380c0 22.1-35.16 40-78.54 40-43.38 0-78.54-17.9-78.54-40s35.16-40 78.54-40c43.38 0 78.54 17.9 78.54 40z" stroke="#fff" fill="#ffbbb1"/><use xlink:href="#j" transform="matrix(1,0,0,1,1685,345) translate(57 38.4625)"/><path d="M1837.08 480c0 22.1-35.16 40-78.54 40-43.38 0-78.54-17.9-78.54-40s35.16-40 78.54-40c43.38 0 78.54 17.9 78.54 40z" stroke="#fff" fill="#ffbbb1"/><use xlink:href="#k" transform="matrix(1,0,0,1,1685,445) translate(54.55 38.4625)"/><path d="M1837.08 1142.13c0 22.1-35.16 40-78.54 40-43.38 0-78.54-17.9-78.54-40s35.16-40 78.54-40c43.38 0 78.54 17.9 78.54 40z" stroke="#fff" fill="#ffbbb1"/><use xlink:href="#l" transform="matrix(1,0,0,1,1685,1107.1292290569309) translate(30.574999999999996 38.4625)"/><path d="M1424 1040c0-4.42 3.58-8 8-8h144c4.42 0 8 3.58 8 8v104c0 4.42-3.58 8-8 8h-144c-4.42 0-8-3.58-8-8z" stroke="#000" stroke-opacity="0" stroke-width="10" fill="#19967d"/><use xlink:href="#m" transform="matrix(1,0,0,1,1429,1037) translate(30.969444444444456 59.323611111111106)"/><path d="M1837.08 1042.13c0 22.1-35.16 40-78.54 40-43.38 0-78.54-17.9-78.54-40s35.16-40 78.54-40c43.38 0 78.54 17.9 78.54 40z" stroke="#fff" fill="#ffbbb1"/><use xlink:href="#b" transform="matrix(1,0,0,1,1685,1007.1292290569304) translate(51.525 38.4625)"/><path d="M300 1040c0-4.42 3.58-8 8-8h144c4.42 0 8 3.58 8 8v104c0 4.42-3.58 8-8 8H308c-4.42 0-8-3.58-8-8z" stroke="#000" stroke-opacity="0" stroke-width="10" fill="#19967d"/><use xlink:href="#n" transform="matrix(1,0,0,1,305,1037) translate(10.13055555555556 59.323611111111106)"/><path d="M217.08 982.13c0 22.1-35.16 40-78.54 40-43.38 0-78.54-17.9-78.54-40s35.16-40 78.54-40c43.38 0 78.54 17.9 78.54 40z" stroke="#fff" fill="#ffbbb1"/><use xlink:href="#b" transform="matrix(1,0,0,1,65,947.1292290569306) translate(51.525 38.4625)"/><path d="M217.08 1092.13c0 22.1-35.16 40-78.54 40-43.38 0-78.54-17.9-78.54-40s35.16-40 78.54-40c43.38 0 78.54 17.9 78.54 40z" stroke="#fff" fill="#ffbbb1"/><use xlink:href="#o" transform="matrix(1,0,0,1,65,1057.1292290569306) translate(42.025 38.4625)"/><path d="M217.08 1202.13c0 22.1-35.16 40-78.54 40-43.38 0-78.54-17.9-78.54-40s35.16-40 78.54-40c43.38 0 78.54 17.9 78.54 40z" stroke="#fff" fill="#ffbbb1"/><use xlink:href="#p" transform="matrix(1,0,0,1,65,1167.1292290569306) translate(20.575000000000003 38.4625)"/><path d="M218.58 1092.13h40.15c.03 0 .06-.03.06-.07 0-.03.02-.06.06-.06H299" stroke="#5e5e5e" stroke-width="2" fill="none"/><path d="M218.6 1093.13h-1.05l.03-1-.02-.92v-.07h1.05M300 1093h-1.03v-2H300" fill="#5e5e5e"/><path d="M218.58 982.13h34.2c3.33 0 6 2.7 6 6V1086c0 3.3 2.7 6 6 6H299" stroke="#5e5e5e" stroke-width="2" fill="none"/><path d="M218.6 983.13h-1.05l.03-1-.02-.92v-.07h1.05M300 1093h-1.03v-2H300" fill="#5e5e5e"/><path d="M218.58 1202.13h34.2c3.33 0 6-2.7 6-6V1098c0-3.3 2.7-6 6-6H299" stroke="#5e5e5e" stroke-width="2" fill="none"/><path d="M218.6 1203.13h-1.05l.03-1-.02-.92v-.07h1.05M300 1093h-1.03v-2H300" fill="#5e5e5e"/><path d="M1503.47 381v73.13" stroke="#5e5e5e" stroke-width="2" fill="none"/><path d="M1504.47 381.03h-2V380h2M1504.47 455.1l-2 .07v-1.07h2" fill="#5e5e5e"/><path d="M1504 1031v-36.3c0-.15-.12-.26-.26-.26-.15 0-.27-.12-.27-.27v-36.3" stroke="#5e5e5e" stroke-width="2" fill="none"/><path d="M1505 1032h-2v-1.03h2M1504.47 957.9h-2v-1l2-.07" fill="#5e5e5e"/><path d="M1678.5 1142.13h-40.75c-3.3 0-6-2.7-6-6V1098c0-3.3-2.7-6-6-6H1585" stroke="#5e5e5e" stroke-width="2" fill="none"/><path d="M1679.5 1142.13l.02.92v.08h-1.05v-2h1.06M1585.03 1093H1584v-2h1.03" fill="#5e5e5e"/><path d="M1678.5 1042.13h-40.75c-3.3 0-6 2.7-6 6V1086c0 3.3-2.7 6-6 6H1585" stroke="#5e5e5e" stroke-width="2" fill="none"/><path d="M1679.5 1042.13l.02.92v.08h-1.05v-2h1.06M1585.03 1093H1584v-2h1.03" fill="#5e5e5e"/><path d="M1678.5 180h-41c-3.33 0-6 2.7-6 6v127.5c0 3.3-2.7 6-6 6h-41.03" stroke="#5e5e5e" stroke-width="2" fill="none"/><path d="M1679.5 180l.02.92v.08h-1.05v-2h1.06M1584.5 320.5h-1.03v-2h1.03" fill="#5e5e5e"/><path d="M1678.5 280h-41c-3.33 0-6 2.7-6 6v28c0 3.3-2.7 6-6 6h-41.03" stroke="#5e5e5e" stroke-width="2" fill="none"/><path d="M1679.5 280l.02.92v.08h-1.05v-2h1.06M1584.5 321h-1.03v-2h1.03" fill="#5e5e5e"/><path d="M1678.5 380h-41c-3.33 0-6-2.7-6-6v-48c0-3.3-2.7-6-6-6h-41.03" stroke="#5e5e5e" stroke-width="2" fill="none"/><path d="M1679.5 380l.02.92v.08h-1.05v-2h1.06M1584.5 321h-1.03v-2h1.03" fill="#5e5e5e"/><path d="M1678.5 480h-41c-3.33 0-6-2.7-6-6V326c0-3.3-2.7-6-6-6h-41.03" stroke="#5e5e5e" stroke-width="2" fill="none"/><path d="M1679.5 480l.02.92v.08h-1.05v-2h1.06M1584.5 321h-1.03v-2h1.03" fill="#5e5e5e"/><path d="M1388.47 654c0-4.42 3.58-8 8-8h214c4.42 0 8 3.58 8 8v104c0 4.42-3.58 8-8 8h-214c-4.42 0-8-3.58-8-8z" stroke="#000" stroke-opacity="0" stroke-width="10" fill="#19967d"/><use xlink:href="#q" transform="matrix(1,0,0,1,1393.4707025904033,651) translate(19.772839506172843 59.323611111111106)"/><path d="M1496.2 842.35c4.02-1.85 10.52-1.85 14.53 0l115.48 53.3c4.02 1.85 4.02 4.85 0 6.7l-115.47 53.3c-4 1.85-10.5 1.85-14.52 0l-115.47-53.3c-4-1.85-4-4.85 0-6.7z" stroke="#000" stroke-opacity="0" fill="#ffdba9"/><use xlink:href="#r" transform="matrix(1,0,0,1,1378.4707025904033,844) translate(73.35160493827163 59.20555555555555)"/><path d="M1503.47 767v73.13" stroke="#5e5e5e" stroke-width="2" fill="none"/><path d="M1504.47 767.03h-2V766h2M1504.47 841.1l-2 .07v-1.07h2" fill="#5e5e5e"/><path d="M1496.2 456.35c4.02-1.85 10.52-1.85 14.53 0l115.48 53.3c4.02 1.85 4.02 4.85 0 6.7l-115.47 53.3c-4 1.85-10.5 1.85-14.52 0l-115.47-53.3c-4-1.85-4-4.85 0-6.7z" stroke="#000" stroke-opacity="0" fill="#ffdba9"/><use xlink:href="#s" transform="matrix(1,0,0,1,1378.4707025904033,458) translate(51.53061728395066 59.20555555555555)"/><path d="M1503.47 645v-73.13" stroke="#5e5e5e" stroke-width="2" fill="none"/><path d="M1504.47 646h-2v-1.03h2M1504.47 571.9h-2v-1l2-.07" fill="#5e5e5e"/><path d="M372.74 842.35c4-1.85 10.5-1.85 14.52 0l115.48 53.3c4 1.85 4 4.85 0 6.7l-115.48 53.3c-4 1.85-10.5 1.85-14.52 0l-115.48-53.3c-4-1.85-4-4.85 0-6.7z" stroke="#000" stroke-opacity="0" fill="#ffdba9"/><use xlink:href="#t" transform="matrix(1,0,0,1,255,844) translate(50.938333333333375 59.20555555555555)"/><path d="M643.74 1035.48c4-1.85 10.5-1.85 14.52 0l115.48 53.3c4 1.85 4 4.85 0 6.7l-115.48 53.3c-4 1.85-10.5 1.85-14.52 0l-115.48-53.3c-4-1.85-4-4.85 0-6.7z" stroke="#000" stroke-opacity="0" fill="#ffdba9"/><use xlink:href="#u" transform="matrix(1,0,0,1,526,1037.1292290569306) translate(46.542962962963 59.20555555555555)"/><path d="M461 1092h31.68c.04 0 .07.03.07.06 0 .04.02.07.06.07h31.7" stroke="#5e5e5e" stroke-width="2" fill="none"/><path d="M461.03 1093H460v-2h1.03M525.37 1091.43l.3 1.7h-1.2v-2h1.16" fill="#5e5e5e"/><path d="M380 1031v-73.13" stroke="#5e5e5e" stroke-width="2" fill="none"/><path d="M381 1032h-2v-1.03h2M381 957.9h-2v-1l2-.07" fill="#5e5e5e"/><path d="M280 654c0-4.42 3.58-8 8-8h184c4.42 0 8 3.58 8 8v104c0 4.42-3.58 8-8 8H288c-4.42 0-8-3.58-8-8z" stroke="#000" stroke-opacity="0" stroke-width="10" fill="#19967d"/><use xlink:href="#v" transform="matrix(1,0,0,1,285,651) translate(18.179938271604954 59.323611111111106)"/><path d="M842 1040.13c0-4.42 3.58-8 8-8h184c4.42 0 8 3.58 8 8v104c0 4.42-3.58 8-8 8H850c-4.42 0-8-3.58-8-8z" stroke="#000" stroke-opacity="0" stroke-width="10" fill="#19967d"/><use xlink:href="#w" transform="matrix(1,0,0,1,847,1037.1292290569306) translate(11.420370370370392 59.323611111111106)"/><path d="M380 767v73.13" stroke="#5e5e5e" stroke-width="2" fill="none"/><path d="M381 767.03h-2V766h2M381 841.1l-2 .07v-1.07h2" fill="#5e5e5e"/><path d="M372.74 456.35c4-1.85 10.5-1.85 14.52 0l115.48 53.3c4 1.85 4 4.85 0 6.7l-115.48 53.3c-4 1.85-10.5 1.85-14.52 0l-115.48-53.3c-4-1.85-4-4.85 0-6.7z" stroke="#000" stroke-opacity="0" fill="#ffdba9"/><use xlink:href="#x" transform="matrix(1,0,0,1,255,458) translate(63.968580246913604 59.20555555555555)"/><path d="M380 645v-73.13" stroke="#5e5e5e" stroke-width="2" fill="none"/><path d="M381 646h-2v-1.03h2M381 571.9h-2v-1l2-.07" fill="#5e5e5e"/><path d="M380 381v73.13" stroke="#5e5e5e" stroke-width="2" fill="none"/><path d="M381 381.03h-2V380h2M381 455.1l-2 .07v-1.07h2" fill="#5e5e5e"/><path d="M841 1092.13h-63.5" stroke="#5e5e5e" stroke-width="2" fill="none"/><path d="M842 1093.13h-1.03v-2H842M777.54 1093.13h-1.17l.26-.3-.3-1.7h1.2" fill="#5e5e5e"/><path d="M1225.74 1035.48c4-1.85 10.5-1.85 14.52 0l115.48 53.3c4 1.85 4 4.85 0 6.7l-115.48 53.3c-4 1.85-10.5 1.85-14.52 0l-115.48-53.3c-4-1.85-4-4.85 0-6.7z" stroke="#000" stroke-opacity="0" fill="#ffdba9"/><use xlink:href="#y" transform="matrix(1,0,0,1,1108,1037.1292290569306) translate(23.470061728395095 59.48888888888889)"/><path d="M1423 1092h-31.68c-.04 0-.07.03-.07.06 0 .04-.02.07-.06.07h-31.7" stroke="#5e5e5e" stroke-width="2" fill="none"/><path d="M1424 1093h-1.03v-2h1.03M1359.54 1093.13h-1.17l.26-.3-.3-1.7h1.2" fill="#5e5e5e"/><path d="M1043 1092.13h63.5" stroke="#5e5e5e" stroke-width="2" fill="none"/><path d="M1043.03 1093.13H1042v-2h1.03M1107.37 1091.43l.3 1.7h-1.2v-2h1.16" fill="#5e5e5e"/><defs><path fill="#fff" d="M205 0l-28-72H64L36 0H1l101-248h38L239 0h-34zm-38-99l-47-123c-12 45-31 82-46 123h93" id="z"/><path fill="#fff" d="M114-163C36-179 61-72 57 0H25l-1-190h30c1 12-1 29 2 39 6-27 23-49 58-41v29" id="A"/><path fill="#fff" d="M59-47c-2 24 18 29 38 22v24C64 9 27 4 27-40v-127H5v-23h24l9-43h21v43h35v23H59v120" id="B"/><path fill="#fff" d="M24-231v-30h32v30H24zM24 0v-190h32V0H24" id="C"/><path fill="#fff" d="M135-143c-3-34-86-38-87 0 15 53 115 12 119 90S17 21 10-45l28-5c4 36 97 45 98 0-10-56-113-15-118-90-4-57 82-63 122-42 12 7 21 19 24 35" id="D"/><g id="a"><use transform="matrix(0.07469135802469135,0,0,0.07469135802469135,0,0)" xlink:href="#z"/><use transform="matrix(0.07469135802469135,0,0,0.07469135802469135,17.925925925925924,0)" xlink:href="#A"/><use transform="matrix(0.07469135802469135,0,0,0.07469135802469135,26.81419753086419,0)" xlink:href="#B"/><use transform="matrix(0.07469135802469135,0,0,0.07469135802469135,34.283333333333324,0)" xlink:href="#C"/><use transform="matrix(0.07469135802469135,0,0,0.07469135802469135,40.18395061728394,0)" xlink:href="#D"/><use transform="matrix(0.07469135802469135,0,0,0.07469135802469135,53.62839506172838,0)" xlink:href="#B"/><use transform="matrix(0.07469135802469135,0,0,0.07469135802469135,61.09753086419751,0)" xlink:href="#D"/></g><path fill="#333" d="M117-194c89-4 53 116 60 194h-32v-121c0-31-8-49-39-48C34-167 62-67 57 0H25l-1-190h30c1 10-1 24 2 32 11-22 29-35 61-36" id="E"/><path fill="#333" d="M141-36C126-15 110 5 73 4 37 3 15-17 15-53c-1-64 63-63 125-63 3-35-9-54-41-54-24 1-41 7-42 31l-33-3c5-37 33-52 76-52 45 0 72 20 72 64v82c-1 20 7 32 28 27v20c-31 9-61-2-59-35zM48-53c0 20 12 33 32 33 41-3 63-29 60-74-43 2-92-5-92 41" id="F"/><path fill="#333" d="M210-169c-67 3-38 105-44 169h-31v-121c0-29-5-50-35-48C34-165 62-65 56 0H25l-1-190h30c1 10-1 24 2 32 10-44 99-50 107 0 11-21 27-35 58-36 85-2 47 119 55 194h-31v-121c0-29-5-49-35-48" id="G"/><path fill="#333" d="M100-194c63 0 86 42 84 106H49c0 40 14 67 53 68 26 1 43-12 49-29l28 8c-11 28-37 45-77 45C44 4 14-33 15-96c1-61 26-98 85-98zm52 81c6-60-76-77-97-28-3 7-6 17-6 28h103" id="H"/><g id="b"><use transform="matrix(0.05,0,0,0.05,0,0)" xlink:href="#E"/><use transform="matrix(0.05,0,0,0.05,10,0)" xlink:href="#F"/><use transform="matrix(0.05,0,0,0.05,20,0)" xlink:href="#G"/><use transform="matrix(0.05,0,0,0.05,34.95,0)" xlink:href="#H"/><path fill="#333" d="M-.9 1.25h46.75v1.32H-.9z"/></g><path fill="#333" d="M115-194c53 0 69 39 70 98 0 66-23 100-70 100C84 3 66-7 56-30L54 0H23l1-261h32v101c10-23 28-34 59-34zm-8 174c40 0 45-34 45-75 0-40-5-75-45-74-42 0-51 32-51 76 0 43 10 73 51 73" id="I"/><path fill="#333" d="M24-231v-30h32v30H24zM24 0v-190h32V0H24" id="J"/><path fill="#333" d="M114-163C36-179 61-72 57 0H25l-1-190h30c1 12-1 29 2 39 6-27 23-49 58-41v29" id="K"/><path fill="#333" d="M59-47c-2 24 18 29 38 22v24C64 9 27 4 27-40v-127H5v-23h24l9-43h21v43h35v23H59v120" id="L"/><path fill="#333" d="M106-169C34-169 62-67 57 0H25v-261h32l-1 103c12-21 28-36 61-36 89 0 53 116 60 194h-32v-121c2-32-8-49-39-48" id="M"/><path fill="#333" d="M115-194c55 1 70 41 70 98S169 2 115 4C84 4 66-9 55-30l1 105H24l-1-265h31l2 30c10-21 28-34 59-34zm-8 174c40 0 45-34 45-75s-6-73-45-74c-42 0-51 32-51 76 0 43 10 73 51 73" id="N"/><path fill="#333" d="M24 0v-261h32V0H24" id="O"/><path fill="#333" d="M96-169c-40 0-48 33-48 73s9 75 48 75c24 0 41-14 43-38l32 2c-6 37-31 61-74 61-59 0-76-41-82-99-10-93 101-131 147-64 4 7 5 14 7 22l-32 3c-4-21-16-35-41-35" id="P"/><g id="c"><use transform="matrix(0.05,0,0,0.05,0,0)" xlink:href="#I"/><use transform="matrix(0.05,0,0,0.05,10,0)" xlink:href="#J"/><use transform="matrix(0.05,0,0,0.05,13.949999999999998,0)" xlink:href="#K"/><use transform="matrix(0.05,0,0,0.05,19.9,0)" xlink:href="#L"/><use transform="matrix(0.05,0,0,0.05,24.9,0)" xlink:href="#M"/><use transform="matrix(0.05,0,0,0.05,34.9,0)" xlink:href="#N"/><use transform="matrix(0.05,0,0,0.05,44.9,0)" xlink:href="#O"/><use transform="matrix(0.05,0,0,0.05,48.85,0)" xlink:href="#F"/><use transform="matrix(0.05,0,0,0.05,58.85,0)" xlink:href="#P"/><use transform="matrix(0.05,0,0,0.05,67.85,0)" xlink:href="#H"/></g><path fill="#333" d="M177-190C167-65 218 103 67 71c-23-6-38-20-44-43l32-5c15 47 100 32 89-28v-30C133-14 115 1 83 1 29 1 15-40 15-95c0-56 16-97 71-98 29-1 48 16 59 35 1-10 0-23 2-32h30zM94-22c36 0 50-32 50-73 0-42-14-75-50-75-39 0-46 34-46 75s6 73 46 73" id="Q"/><g id="d"><use transform="matrix(0.05,0,0,0.05,0,0)" xlink:href="#F"/><use transform="matrix(0.05,0,0,0.05,10,0)" xlink:href="#Q"/><use transform="matrix(0.05,0,0,0.05,20,0)" xlink:href="#H"/></g><path fill="#333" d="M-5 72V49h209v23H-5" id="R"/><path fill="#333" d="M135-143c-3-34-86-38-87 0 15 53 115 12 119 90S17 21 10-45l28-5c4 36 97 45 98 0-10-56-113-15-118-90-4-57 82-63 122-42 12 7 21 19 24 35" id="S"/><path fill="#333" d="M179-190L93 31C79 59 56 82 12 73V49c39 6 53-20 64-50L1-190h34L92-34l54-156h33" id="T"/><g id="e"><use transform="matrix(0.05,0,0,0.05,0,0)" xlink:href="#F"/><use transform="matrix(0.05,0,0,0.05,10,0)" xlink:href="#K"/><use transform="matrix(0.05,0,0,0.05,15.949999999999998,0)" xlink:href="#L"/><use transform="matrix(0.05,0,0,0.05,20.95,0)" xlink:href="#R"/><use transform="matrix(0.05,0,0,0.05,30.950000000000003,0)" xlink:href="#S"/><use transform="matrix(0.05,0,0,0.05,39.95,0)" xlink:href="#L"/><use transform="matrix(0.05,0,0,0.05,44.95,0)" xlink:href="#T"/><use transform="matrix(0.05,0,0,0.05,53.95,0)" xlink:href="#O"/><use transform="matrix(0.05,0,0,0.05,57.900000000000006,0)" xlink:href="#H"/></g><path fill="#fff" d="M206 0h-36l-40-164L89 0H53L-1-190h32L70-26l43-164h34l41 164 42-164h31" id="U"/><path fill="#fff" d="M100-194c62-1 85 37 85 99 1 63-27 99-86 99S16-35 15-95c0-66 28-99 85-99zM99-20c44 1 53-31 53-75 0-43-8-75-51-75s-53 32-53 75 10 74 51 75" id="V"/><path fill="#fff" d="M143 0L79-87 56-68V0H24v-261h32v163l83-92h37l-77 82L181 0h-38" id="W"/><g id="f"><use transform="matrix(0.07469135802469135,0,0,0.07469135802469135,0,0)" xlink:href="#z"/><use transform="matrix(0.07469135802469135,0,0,0.07469135802469135,17.925925925925924,0)" xlink:href="#A"/><use transform="matrix(0.07469135802469135,0,0,0.07469135802469135,26.81419753086419,0)" xlink:href="#B"/><use transform="matrix(0.07469135802469135,0,0,0.07469135802469135,34.283333333333324,0)" xlink:href="#U"/><use transform="matrix(0.07469135802469135,0,0,0.07469135802469135,53.62839506172838,0)" xlink:href="#V"/><use transform="matrix(0.07469135802469135,0,0,0.07469135802469135,68.56666666666665,0)" xlink:href="#A"/><use transform="matrix(0.07469135802469135,0,0,0.07469135802469135,77.4549382716049,0)" xlink:href="#W"/><use transform="matrix(0.07469135802469135,0,0,0.07469135802469135,90.89938271604937,0)" xlink:href="#D"/></g><path fill="#333" d="M101-234c-31-9-42 10-38 44h38v23H63V0H32v-167H5v-23h27c-7-52 17-82 69-68v24" id="X"/><path fill="#333" d="M143 0L79-87 56-68V0H24v-261h32v163l83-92h37l-77 82L181 0h-38" id="Y"/><g id="g"><use transform="matrix(0.06234567901234565,0,0,0.06234567901234565,0,0)" xlink:href="#X"/><use transform="matrix(0.06234567901234565,0,0,0.06234567901234565,6.234567901234565,0)" xlink:href="#Y"/><use transform="matrix(0.06234567901234565,0,0,0.06234567901234565,17.456790123456784,0)" xlink:href="#R"/><use transform="matrix(0.06234567901234565,0,0,0.06234567901234565,29.925925925925917,0)" xlink:href="#F"/><use transform="matrix(0.06234567901234565,0,0,0.06234567901234565,42.39506172839505,0)" xlink:href="#K"/><use transform="matrix(0.06234567901234565,0,0,0.06234567901234565,49.814197530864185,0)" xlink:href="#L"/><use transform="matrix(0.06234567901234565,0,0,0.06234567901234565,56.04876543209875,0)" xlink:href="#J"/><use transform="matrix(0.06234567901234565,0,0,0.06234567901234565,60.97407407407405,0)" xlink:href="#S"/><use transform="matrix(0.06234567901234565,0,0,0.06234567901234565,72.19629629629627,0)" xlink:href="#L"/><use transform="matrix(0.06234567901234565,0,0,0.06234567901234565,78.43086419753084,0)" xlink:href="#S"/></g><g id="h"><use transform="matrix(0.05,0,0,0.05,0,0)" xlink:href="#T"/><use transform="matrix(0.05,0,0,0.05,9,0)" xlink:href="#H"/><use transform="matrix(0.05,0,0,0.05,19,0)" xlink:href="#F"/><use transform="matrix(0.05,0,0,0.05,29,0)" xlink:href="#K"/></g><g id="i"><use transform="matrix(0.05,0,0,0.05,0,0)" xlink:href="#L"/><use transform="matrix(0.05,0,0,0.05,5,0)" xlink:href="#J"/><use transform="matrix(0.05,0,0,0.05,8.95,0)" xlink:href="#L"/><use transform="matrix(0.05,0,0,0.05,13.949999999999998,0)" xlink:href="#O"/><use transform="matrix(0.05,0,0,0.05,17.9,0)" xlink:href="#H"/></g><g id="j"><use transform="matrix(0.05,0,0,0.05,0,0)" xlink:href="#L"/><use transform="matrix(0.05,0,0,0.05,5,0)" xlink:href="#T"/><use transform="matrix(0.05,0,0,0.05,14,0)" xlink:href="#N"/><use transform="matrix(0.05,0,0,0.05,24,0)" xlink:href="#H"/></g><g id="k"><use transform="matrix(0.05,0,0,0.05,0,0)" xlink:href="#N"/><use transform="matrix(0.05,0,0,0.05,10,0)" xlink:href="#K"/><use transform="matrix(0.05,0,0,0.05,15.949999999999998,0)" xlink:href="#J"/><use transform="matrix(0.05,0,0,0.05,19.9,0)" xlink:href="#P"/><use transform="matrix(0.05,0,0,0.05,28.899999999999995,0)" xlink:href="#H"/></g><path fill="#333" d="M85-194c31 0 48 13 60 33l-1-100h32l1 261h-30c-2-10 0-23-3-31C134-8 116 4 85 4 32 4 16-35 15-94c0-66 23-100 70-100zm9 24c-40 0-46 34-46 75 0 40 6 74 45 74 42 0 51-32 51-76 0-42-9-74-50-73" id="Z"/><path fill="#333" d="M100-194c62-1 85 37 85 99 1 63-27 99-86 99S16-35 15-95c0-66 28-99 85-99zM99-20c44 1 53-31 53-75 0-43-8-75-51-75s-53 32-53 75 10 74 51 75" id="aa"/><g id="l"><use transform="matrix(0.05,0,0,0.05,0,0)" xlink:href="#Z"/><use transform="matrix(0.05,0,0,0.05,10,0)" xlink:href="#H"/><use transform="matrix(0.05,0,0,0.05,20,0)" xlink:href="#S"/><use transform="matrix(0.05,0,0,0.05,29,0)" xlink:href="#P"/><use transform="matrix(0.05,0,0,0.05,38,0)" xlink:href="#K"/><use transform="matrix(0.05,0,0,0.05,43.95,0)" xlink:href="#J"/><use transform="matrix(0.05,0,0,0.05,47.900000000000006,0)" xlink:href="#N"/><use transform="matrix(0.05,0,0,0.05,57.900000000000006,0)" xlink:href="#L"/><use transform="matrix(0.05,0,0,0.05,62.900000000000006,0)" xlink:href="#J"/><use transform="matrix(0.05,0,0,0.05,66.85000000000001,0)" xlink:href="#aa"/><use transform="matrix(0.05,0,0,0.05,76.85000000000001,0)" xlink:href="#E"/></g><path fill="#fff" d="M143 4C61 4 22-44 18-125c-5-107 100-154 193-111 17 8 29 25 37 43l-32 9c-13-25-37-40-76-40-61 0-88 39-88 99 0 61 29 100 91 101 35 0 62-11 79-27v-45h-74v-28h105v86C228-13 192 4 143 4" id="ab"/><path fill="#fff" d="M84 4C-5 8 30-112 23-190h32v120c0 31 7 50 39 49 72-2 45-101 50-169h31l1 190h-30c-1-10 1-25-2-33-11 22-28 36-60 37" id="ac"/><path fill="#fff" d="M115-194c55 1 70 41 70 98S169 2 115 4C84 4 66-9 55-30l1 105H24l-1-265h31l2 30c10-21 28-34 59-34zm-8 174c40 0 45-34 45-75s-6-73-45-74c-42 0-51 32-51 76 0 43 10 73 51 73" id="ad"/><g id="m"><use transform="matrix(0.07469135802469135,0,0,0.07469135802469135,0,0)" xlink:href="#ab"/><use transform="matrix(0.07469135802469135,0,0,0.07469135802469135,20.913580246913575,0)" xlink:href="#A"/><use transform="matrix(0.07469135802469135,0,0,0.07469135802469135,29.801851851851843,0)" xlink:href="#V"/><use transform="matrix(0.07469135802469135,0,0,0.07469135802469135,44.740123456790116,0)" xlink:href="#ac"/><use transform="matrix(0.07469135802469135,0,0,0.07469135802469135,59.678395061728374,0)" xlink:href="#ad"/><use transform="matrix(0.07469135802469135,0,0,0.07469135802469135,74.61666666666665,0)" xlink:href="#D"/></g><path fill="#fff" d="M212-179c-10-28-35-45-73-45-59 0-87 40-87 99 0 60 29 101 89 101 43 0 62-24 78-52l27 14C228-24 195 4 139 4 59 4 22-46 18-125c-6-104 99-153 187-111 19 9 31 26 39 46" id="ae"/><path fill="#fff" d="M210-169c-67 3-38 105-44 169h-31v-121c0-29-5-50-35-48C34-165 62-65 56 0H25l-1-190h30c1 10-1 24 2 32 10-44 99-50 107 0 11-21 27-35 58-36 85-2 47 119 55 194h-31v-121c0-29-5-49-35-48" id="af"/><path fill="#fff" d="M100-194c63 0 86 42 84 106H49c0 40 14 67 53 68 26 1 43-12 49-29l28 8c-11 28-37 45-77 45C44 4 14-33 15-96c1-61 26-98 85-98zm52 81c6-60-76-77-97-28-3 7-6 17-6 28h103" id="ag"/><g id="n"><use transform="matrix(0.07469135802469135,0,0,0.07469135802469135,0,0)" xlink:href="#ae"/><use transform="matrix(0.07469135802469135,0,0,0.07469135802469135,19.34506172839506,0)" xlink:href="#ac"/><use transform="matrix(0.07469135802469135,0,0,0.07469135802469135,34.28333333333333,0)" xlink:href="#D"/><use transform="matrix(0.07469135802469135,0,0,0.07469135802469135,47.72777777777778,0)" xlink:href="#B"/><use transform="matrix(0.07469135802469135,0,0,0.07469135802469135,55.19691358024691,0)" xlink:href="#V"/><use transform="matrix(0.07469135802469135,0,0,0.07469135802469135,70.13518518518518,0)" xlink:href="#af"/><use transform="matrix(0.07469135802469135,0,0,0.07469135802469135,92.46790123456789,0)" xlink:href="#ag"/><use transform="matrix(0.07469135802469135,0,0,0.07469135802469135,107.40617283950616,0)" xlink:href="#A"/><use transform="matrix(0.07469135802469135,0,0,0.07469135802469135,116.29444444444442,0)" xlink:href="#D"/></g><g id="o"><use transform="matrix(0.05,0,0,0.05,0,0)" xlink:href="#F"/><use transform="matrix(0.05,0,0,0.05,10,0)" xlink:href="#Z"/><use transform="matrix(0.05,0,0,0.05,20,0)" xlink:href="#Z"/><use transform="matrix(0.05,0,0,0.05,30,0)" xlink:href="#K"/><use transform="matrix(0.05,0,0,0.05,35.95,0)" xlink:href="#H"/><use transform="matrix(0.05,0,0,0.05,45.95,0)" xlink:href="#S"/><use transform="matrix(0.05,0,0,0.05,54.95,0)" xlink:href="#S"/></g><g id="p"><use transform="matrix(0.05,0,0,0.05,0,0)" xlink:href="#Z"/><use transform="matrix(0.05,0,0,0.05,10,0)" xlink:href="#aa"/><use transform="matrix(0.05,0,0,0.05,20,0)" xlink:href="#O"/><use transform="matrix(0.05,0,0,0.05,23.95,0)" xlink:href="#O"/><use transform="matrix(0.05,0,0,0.05,27.899999999999995,0)" xlink:href="#F"/><use transform="matrix(0.05,0,0,0.05,37.9,0)" xlink:href="#K"/><use transform="matrix(0.05,0,0,0.05,43.85,0)" xlink:href="#S"/><use transform="matrix(0.05,0,0,0.05,52.85,0)" xlink:href="#R"/><use transform="matrix(0.05,0,0,0.05,62.85,0)" xlink:href="#S"/><use transform="matrix(0.05,0,0,0.05,71.85,0)" xlink:href="#N"/><use transform="matrix(0.05,0,0,0.05,81.85,0)" xlink:href="#H"/><use transform="matrix(0.05,0,0,0.05,91.85,0)" xlink:href="#E"/><use transform="matrix(0.05,0,0,0.05,101.85,0)" xlink:href="#L"/></g><path fill="#fff" d="M-5 72V49h209v23H-5" id="ah"/><g id="q"><use transform="matrix(0.07469135802469135,0,0,0.07469135802469135,0,0)" xlink:href="#z"/><use transform="matrix(0.07469135802469135,0,0,0.07469135802469135,17.925925925925924,0)" xlink:href="#A"/><use transform="matrix(0.07469135802469135,0,0,0.07469135802469135,26.81419753086419,0)" xlink:href="#B"/><use transform="matrix(0.07469135802469135,0,0,0.07469135802469135,34.283333333333324,0)" xlink:href="#U"/><use transform="matrix(0.07469135802469135,0,0,0.07469135802469135,53.62839506172838,0)" xlink:href="#V"/><use transform="matrix(0.07469135802469135,0,0,0.07469135802469135,68.56666666666665,0)" xlink:href="#A"/><use transform="matrix(0.07469135802469135,0,0,0.07469135802469135,77.4549382716049,0)" xlink:href="#W"/><use transform="matrix(0.07469135802469135,0,0,0.07469135802469135,90.89938271604937,0)" xlink:href="#ah"/><use transform="matrix(0.07469135802469135,0,0,0.07469135802469135,105.83765432098762,0)" xlink:href="#ab"/><use transform="matrix(0.07469135802469135,0,0,0.07469135802469135,126.75123456790121,0)" xlink:href="#A"/><use transform="matrix(0.07469135802469135,0,0,0.07469135802469135,135.63950617283948,0)" xlink:href="#V"/><use transform="matrix(0.07469135802469135,0,0,0.07469135802469135,150.57777777777775,0)" xlink:href="#ac"/><use transform="matrix(0.07469135802469135,0,0,0.07469135802469135,165.51604938271603,0)" xlink:href="#ad"/></g><path fill="#333" d="M206 0h-36l-40-164L89 0H53L-1-190h32L70-26l43-164h34l41 164 42-164h31" id="ai"/><g id="r"><use transform="matrix(0.06234567901234565,0,0,0.06234567901234565,0,0)" xlink:href="#X"/><use transform="matrix(0.06234567901234565,0,0,0.06234567901234565,6.234567901234565,0)" xlink:href="#Y"/><use transform="matrix(0.06234567901234565,0,0,0.06234567901234565,17.456790123456784,0)" xlink:href="#R"/><use transform="matrix(0.06234567901234565,0,0,0.06234567901234565,29.925925925925917,0)" xlink:href="#F"/><use transform="matrix(0.06234567901234565,0,0,0.06234567901234565,42.39506172839505,0)" xlink:href="#K"/><use transform="matrix(0.06234567901234565,0,0,0.06234567901234565,49.814197530864185,0)" xlink:href="#L"/><use transform="matrix(0.06234567901234565,0,0,0.06234567901234565,56.04876543209875,0)" xlink:href="#ai"/><use transform="matrix(0.06234567901234565,0,0,0.06234567901234565,72.19629629629627,0)" xlink:href="#aa"/><use transform="matrix(0.06234567901234565,0,0,0.06234567901234565,84.6654320987654,0)" xlink:href="#K"/><use transform="matrix(0.06234567901234565,0,0,0.06234567901234565,92.08456790123452,0)" xlink:href="#Y"/></g><path fill="#333" d="M84 4C-5 8 30-112 23-190h32v120c0 31 7 50 39 49 72-2 45-101 50-169h31l1 190h-30c-1-10 1-25-2-33-11 22-28 36-60 37" id="aj"/><g id="s"><use transform="matrix(0.06234567901234565,0,0,0.06234567901234565,0,0)" xlink:href="#X"/><use transform="matrix(0.06234567901234565,0,0,0.06234567901234565,6.234567901234565,0)" xlink:href="#Y"/><use transform="matrix(0.06234567901234565,0,0,0.06234567901234565,17.456790123456784,0)" xlink:href="#R"/><use transform="matrix(0.06234567901234565,0,0,0.06234567901234565,29.925925925925917,0)" xlink:href="#F"/><use transform="matrix(0.06234567901234565,0,0,0.06234567901234565,42.39506172839505,0)" xlink:href="#O"/><use transform="matrix(0.06234567901234565,0,0,0.06234567901234565,47.320370370370355,0)" xlink:href="#I"/><use transform="matrix(0.06234567901234565,0,0,0.06234567901234565,59.78950617283949,0)" xlink:href="#aj"/><use transform="matrix(0.06234567901234565,0,0,0.06234567901234565,72.25864197530862,0)" xlink:href="#G"/><use transform="matrix(0.06234567901234565,0,0,0.06234567901234565,90.89999999999998,0)" xlink:href="#R"/><use transform="matrix(0.06234567901234565,0,0,0.06234567901234565,103.3691358024691,0)" xlink:href="#aj"/><use transform="matrix(0.06234567901234565,0,0,0.06234567901234565,115.83827160493823,0)" xlink:href="#S"/><use transform="matrix(0.06234567901234565,0,0,0.06234567901234565,127.06049382716044,0)" xlink:href="#H"/><use transform="matrix(0.06234567901234565,0,0,0.06234567901234565,139.52962962962957,0)" xlink:href="#K"/></g><g id="t"><use transform="matrix(0.06234567901234565,0,0,0.06234567901234565,0,0)" xlink:href="#X"/><use transform="matrix(0.06234567901234565,0,0,0.06234567901234565,6.234567901234565,0)" xlink:href="#Y"/><use transform="matrix(0.06234567901234565,0,0,0.06234567901234565,17.456790123456784,0)" xlink:href="#R"/><use transform="matrix(0.06234567901234565,0,0,0.06234567901234565,29.925925925925917,0)" xlink:href="#O"/><use transform="matrix(0.06234567901234565,0,0,0.06234567901234565,34.85123456790122,0)" xlink:href="#J"/><use transform="matrix(0.06234567901234565,0,0,0.06234567901234565,39.77654320987653,0)" xlink:href="#Y"/><use transform="matrix(0.06234567901234565,0,0,0.06234567901234565,50.99876543209875,0)" xlink:href="#H"/><use transform="matrix(0.06234567901234565,0,0,0.06234567901234565,63.46790123456788,0)" xlink:href="#Z"/><use transform="matrix(0.06234567901234565,0,0,0.06234567901234565,75.93703703703702,0)" xlink:href="#R"/><use transform="matrix(0.06234567901234565,0,0,0.06234567901234565,88.40617283950614,0)" xlink:href="#F"/><use transform="matrix(0.06234567901234565,0,0,0.06234567901234565,100.87530864197527,0)" xlink:href="#K"/><use transform="matrix(0.06234567901234565,0,0,0.06234567901234565,108.2944444444444,0)" xlink:href="#L"/><use transform="matrix(0.06234567901234565,0,0,0.06234567901234565,114.52901234567896,0)" xlink:href="#J"/><use transform="matrix(0.06234567901234565,0,0,0.06234567901234565,119.45432098765427,0)" xlink:href="#S"/><use transform="matrix(0.06234567901234565,0,0,0.06234567901234565,130.67654320987648,0)" xlink:href="#L"/><use transform="matrix(0.06234567901234565,0,0,0.06234567901234565,136.91111111111104,0)" xlink:href="#S"/></g><g id="u"><use transform="matrix(0.06234567901234565,0,0,0.06234567901234565,0,0)" xlink:href="#X"/><use transform="matrix(0.06234567901234565,0,0,0.06234567901234565,6.234567901234565,0)" xlink:href="#Y"/><use transform="matrix(0.06234567901234565,0,0,0.06234567901234565,17.456790123456784,0)" xlink:href="#R"/><use transform="matrix(0.06234567901234565,0,0,0.06234567901234565,29.925925925925917,0)" xlink:href="#O"/><use transform="matrix(0.06234567901234565,0,0,0.06234567901234565,34.85123456790122,0)" xlink:href="#J"/><use transform="matrix(0.06234567901234565,0,0,0.06234567901234565,39.77654320987653,0)" xlink:href="#Y"/><use transform="matrix(0.06234567901234565,0,0,0.06234567901234565,50.99876543209875,0)" xlink:href="#H"/><use transform="matrix(0.06234567901234565,0,0,0.06234567901234565,63.46790123456788,0)" xlink:href="#Z"/><use transform="matrix(0.06234567901234565,0,0,0.06234567901234565,75.93703703703702,0)" xlink:href="#R"/><use transform="matrix(0.06234567901234565,0,0,0.06234567901234565,88.40617283950614,0)" xlink:href="#Q"/><use transform="matrix(0.06234567901234565,0,0,0.06234567901234565,100.87530864197527,0)" xlink:href="#K"/><use transform="matrix(0.06234567901234565,0,0,0.06234567901234565,108.2944444444444,0)" xlink:href="#aa"/><use transform="matrix(0.06234567901234565,0,0,0.06234567901234565,120.76358024691352,0)" xlink:href="#aj"/><use transform="matrix(0.06234567901234565,0,0,0.06234567901234565,133.23271604938265,0)" xlink:href="#N"/><use transform="matrix(0.06234567901234565,0,0,0.06234567901234565,145.70185185185179,0)" xlink:href="#S"/></g><path fill="#fff" d="M30 0v-248h33v221h125V0H30" id="ak"/><path fill="#fff" d="M85-194c31 0 48 13 60 33l-1-100h32l1 261h-30c-2-10 0-23-3-31C134-8 116 4 85 4 32 4 16-35 15-94c0-66 23-100 70-100zm9 24c-40 0-46 34-46 75 0 40 6 74 45 74 42 0 51-32 51-76 0-42-9-74-50-73" id="al"/><g id="v"><use transform="matrix(0.07469135802469135,0,0,0.07469135802469135,0,0)" xlink:href="#ak"/><use transform="matrix(0.07469135802469135,0,0,0.07469135802469135,14.938271604938269,0)" xlink:href="#C"/><use transform="matrix(0.07469135802469135,0,0,0.07469135802469135,20.838888888888885,0)" xlink:href="#W"/><use transform="matrix(0.07469135802469135,0,0,0.07469135802469135,34.28333333333333,0)" xlink:href="#ag"/><use transform="matrix(0.07469135802469135,0,0,0.07469135802469135,49.2216049382716,0)" xlink:href="#al"/><use transform="matrix(0.07469135802469135,0,0,0.07469135802469135,64.15987654320986,0)" xlink:href="#ah"/><use transform="matrix(0.07469135802469135,0,0,0.07469135802469135,79.09814814814814,0)" xlink:href="#z"/><use transform="matrix(0.07469135802469135,0,0,0.07469135802469135,97.02407407407406,0)" xlink:href="#A"/><use transform="matrix(0.07469135802469135,0,0,0.07469135802469135,105.9123456790123,0)" xlink:href="#B"/><use transform="matrix(0.07469135802469135,0,0,0.07469135802469135,113.38148148148146,0)" xlink:href="#C"/><use transform="matrix(0.07469135802469135,0,0,0.07469135802469135,119.28209876543207,0)" xlink:href="#D"/><use transform="matrix(0.07469135802469135,0,0,0.07469135802469135,132.72654320987652,0)" xlink:href="#B"/><use transform="matrix(0.07469135802469135,0,0,0.07469135802469135,140.19567901234566,0)" xlink:href="#D"/></g><g id="w"><use transform="matrix(0.07469135802469135,0,0,0.07469135802469135,0,0)" xlink:href="#ak"/><use transform="matrix(0.07469135802469135,0,0,0.07469135802469135,14.938271604938269,0)" xlink:href="#C"/><use transform="matrix(0.07469135802469135,0,0,0.07469135802469135,20.838888888888885,0)" xlink:href="#W"/><use transform="matrix(0.07469135802469135,0,0,0.07469135802469135,34.28333333333333,0)" xlink:href="#ag"/><use transform="matrix(0.07469135802469135,0,0,0.07469135802469135,49.2216049382716,0)" xlink:href="#al"/><use transform="matrix(0.07469135802469135,0,0,0.07469135802469135,64.15987654320986,0)" xlink:href="#ah"/><use transform="matrix(0.07469135802469135,0,0,0.07469135802469135,79.09814814814814,0)" xlink:href="#ab"/><use transform="matrix(0.07469135802469135,0,0,0.07469135802469135,100.01172839506171,0)" xlink:href="#A"/><use transform="matrix(0.07469135802469135,0,0,0.07469135802469135,108.89999999999998,0)" xlink:href="#V"/><use transform="matrix(0.07469135802469135,0,0,0.07469135802469135,123.83827160493823,0)" xlink:href="#ac"/><use transform="matrix(0.07469135802469135,0,0,0.07469135802469135,138.7765432098765,0)" xlink:href="#ad"/><use transform="matrix(0.07469135802469135,0,0,0.07469135802469135,153.7148148148148,0)" xlink:href="#D"/></g><g id="x"><use transform="matrix(0.06234567901234565,0,0,0.06234567901234565,0,0)" xlink:href="#X"/><use transform="matrix(0.06234567901234565,0,0,0.06234567901234565,6.234567901234565,0)" xlink:href="#Y"/><use transform="matrix(0.06234567901234565,0,0,0.06234567901234565,17.456790123456784,0)" xlink:href="#R"/><use transform="matrix(0.06234567901234565,0,0,0.06234567901234565,29.925925925925917,0)" xlink:href="#P"/><use transform="matrix(0.06234567901234565,0,0,0.06234567901234565,41.14814814814814,0)" xlink:href="#aj"/><use transform="matrix(0.06234567901234565,0,0,0.06234567901234565,53.61728395061727,0)" xlink:href="#S"/><use transform="matrix(0.06234567901234565,0,0,0.06234567901234565,64.83950617283949,0)" xlink:href="#L"/><use transform="matrix(0.06234567901234565,0,0,0.06234567901234565,71.07407407407406,0)" xlink:href="#aa"/><use transform="matrix(0.06234567901234565,0,0,0.06234567901234565,83.54320987654319,0)" xlink:href="#G"/><use transform="matrix(0.06234567901234565,0,0,0.06234567901234565,102.18456790123454,0)" xlink:href="#H"/><use transform="matrix(0.06234567901234565,0,0,0.06234567901234565,114.65370370370367,0)" xlink:href="#K"/></g><g id="y"><use transform="matrix(0.06234567901234565,0,0,0.06234567901234565,0,0)" xlink:href="#X"/><use transform="matrix(0.06234567901234565,0,0,0.06234567901234565,6.234567901234565,0)" xlink:href="#Y"/><use transform="matrix(0.06234567901234565,0,0,0.06234567901234565,17.456790123456784,0)" xlink:href="#R"/><use transform="matrix(0.06234567901234565,0,0,0.06234567901234565,29.925925925925917,0)" xlink:href="#Q"/><use transform="matrix(0.06234567901234565,0,0,0.06234567901234565,42.39506172839505,0)" xlink:href="#K"/><use transform="matrix(0.06234567901234565,0,0,0.06234567901234565,49.814197530864185,0)" xlink:href="#aa"/><use transform="matrix(0.06234567901234565,0,0,0.06234567901234565,62.28333333333332,0)" xlink:href="#aj"/><use transform="matrix(0.06234567901234565,0,0,0.06234567901234565,74.75246913580244,0)" xlink:href="#N"/><use transform="matrix(0.06234567901234565,0,0,0.06234567901234565,87.22160493827157,0)" xlink:href="#S"/><use transform="matrix(0.06234567901234565,0,0,0.06234567901234565,98.44382716049378,0)" xlink:href="#R"/><use transform="matrix(0.06234567901234565,0,0,0.06234567901234565,110.91296296296291,0)" xlink:href="#P"/><use transform="matrix(0.06234567901234565,0,0,0.06234567901234565,122.13518518518512,0)" xlink:href="#aj"/><use transform="matrix(0.06234567901234565,0,0,0.06234567901234565,134.60432098765426,0)" xlink:href="#S"/><use transform="matrix(0.06234567901234565,0,0,0.06234567901234565,145.8265432098765,0)" xlink:href="#L"/><use transform="matrix(0.06234567901234565,0,0,0.06234567901234565,152.06111111111105,0)" xlink:href="#aa"/><use transform="matrix(0.06234567901234565,0,0,0.06234567901234565,164.53024691358019,0)" xlink:href="#G"/><use transform="matrix(0.06234567901234565,0,0,0.06234567901234565,183.17160493827154,0)" xlink:href="#H"/><use transform="matrix(0.06234567901234565,0,0,0.06234567901234565,195.64074074074068,0)" xlink:href="#K"/></g></defs></g></svg>